<svg xmlns="https://www.w3.org/2000/svg" viewBox="0 0 185.95 150.4"><defs><style>.cls-1{fill:#b87c35;}.cls-2{fill:#d48a38;}.cls-3{fill:#343435;}.cls-4{fill:#595955;}.cls-5{fill:#848484;}.cls-6{fill:#a7a7a7;}.cls-7{fill:#888889;}.cls-8{fill:#9c9a99;}.cls-9{fill:#838485;}.cls-10{fill:#9b9a98;}</style></defs><title>Recurso 1</title><g id="Capa_2" data-name="Capa 2"><g id="Capa_1-2" data-name="Capa 1"><path class="cls-1" d="M82.22,104.85c-7,0-12.66-14.71-12.66-32.85s5.67-32.85,12.66-32.85C88,39.15,92.8,49,94.35,62.6c-2.6-26.11-14.51-45.83-28.83-45.83-16.21,0-29.35,25.31-29.35,56.53s13.14,56.53,29.35,56.53S94.87,104.52,94.87,73.3v-.55C94.73,90.54,89.12,104.85,82.22,104.85Z"/><path class="cls-2" d="M66,16.77C49.54,16.77,36.17,41.5,36.17,72S49.54,127.23,66,127.23,95.89,102.5,95.89,72,82.52,16.77,66,16.77ZM65.09,118.1c-11,0-19.84-20.68-19.84-46.19s8.88-46.19,19.84-46.19S84.93,46.4,84.93,71.91,76.05,118.1,65.09,118.1Z"/><path class="cls-3" d="M159.63,74.83c-.5-60.72-38.8-73.32-38.8-73.32S97.65,0,76.49,0,44.74,12.85,44.74,12.85,22.57,33.76,22.57,70.72s15.62,69.12,40.57,76.43,56.69,0,56.69,0S160.14,135.55,159.63,74.83Zm-93.52,52.4c-16.49,0-29.86-24.73-29.86-55.23S49.62,16.77,66.11,16.77,96,41.5,96,72,82.6,127.23,66.11,127.23Z"/><path class="cls-4" d="M78.93,145.88a10.16,10.16,0,0,0,3.6,1s8.87-3,14.16-7.93l2.64,7.64h0c4.31-.4,8.7-.94,12.6-1.51l8.95-9.15c.63,1.51,16.06-4,16.07-4a45.18,45.18,0,0,0,5.26-6.8l-16.54,4.71C146.46,97,140,65.38,140,65.38l13.31-17.59q-.83-3.13-1.85-6L139.27,57.45a61.26,61.26,0,0,0-6.42-23.94l7.86-11.88c-1.05-1.4-2.1-2.7-3.15-3.93L131,28.47C117.84,5.66,107.28,3.78,107.28,3.78h-5.92a43.82,43.82,0,0,1,11.34,9.07L98.11,11.08c-3.27-4.48-9.91-7.3-9.91-7.3H82.47c14.87,6.05,34,26.2,34,77.07S78.93,145.88,78.93,145.88Zm54.42-95.12s7.81,30.49-6,65.64l-9.83-12.72s9.7-26.08-.44-60.47ZM113.7,35.14S107,20.9,103.12,16.75l15.37,1.51S128.32,30.86,131,43.2Zm1.38,75.59L124,122.07s-7.94,15.62-19.65,21.67l-2.9-9.07S111.45,121.92,115.08,110.73Z"/><path class="cls-4" d="M82.53,146.88a37.07,37.07,0,0,0,3.8.28Z"/><path class="cls-5" d="M0,53.86l25.17-4.58-.7,3,34,5.93,12.72-2.3L84,57.66s.47,3.73.59,5.26l56.31,10.39,18.62-3.84,26.46,3.84-29.4,9.29Z"/><polygon class="cls-6" points="0 59.32 0 53.86 156.55 82.58 156.55 88.63 0 59.32"/><polygon class="cls-7" points="185.95 79.8 156.55 88.63 156.55 82.58 185.95 73.29 185.95 79.8"/><path class="cls-7" d="M1.93,72.5,11.67,70s1.38-1.65,1.4-8.22l9.77,1.83s-.49,7.49-.28,11l33.87,7.31h2.35l3.36-.7,21.92,4.17-.34,2.36,54.73,11.5.49-2.23,28.26,6-10.33,2.94Z"/><polygon class="cls-8" points="1.93 76.78 1.93 72.5 156.89 105.93 156.89 113.23 1.93 76.78"/><polygon class="cls-7" points="178.72 94.93 185.95 96.44 175.53 99.8 173.43 95.43 173.43 93.75 178.72 94.93"/><path class="cls-9" d="M186,102.57l-29.06,10.67v-7.31L167.22,103s5.09-10.37.87-17.82l8-2.39a27.15,27.15,0,0,0-.51,17L186,96.44v6.13Z"/><path class="cls-10" d="M139,97s1.68-8,1.66-11.37l15.94,3,11.53-3.46s4.34,5.73-.87,17.82Z"/><path class="cls-10" d="M62.15,81.2a31.48,31.48,0,0,0,1.55-10l21.08,4s-.12,6.09-.71,10.18Z"/></g></g></svg>