<?xml version="1.0" encoding="utf-8"?>
<!-- Generator: Adobe Illustrator 17.0.0, SVG Export Plug-In . SVG Version: 6.00 Build 0)  -->
<!DOCTYPE svg PUBLIC "-//W3C//DTD SVG 1.1//EN" "http://www.w3.org/Graphics/SVG/1.1/DTD/svg11.dtd">
<svg version="1.1" id="Capa_1" xmlns="http://www.w3.org/2000/svg" xmlns:xlink="http://www.w3.org/1999/xlink" x="0px" y="0px"
	 width="442.038px" height="137.58px" viewBox="0 0 442.038 137.58" enable-background="new 0 0 442.038 137.58"
	 xml:space="preserve">
<g>
	<g>
		<path fill="none" stroke="#5F864C" stroke-miterlimit="10" d="M48.137,45.738l-2.2,19.064H21.011
			c-4.657,0-8.431,3.775-8.431,8.432v10.262c0,7.693,6.236,13.929,13.93,13.929h45.539c2.39,0,4.664-1.028,6.243-2.82
			c1.579-1.796,2.311-4.181,2.008-6.551l-5.402-42.315H48.137z"/>
		<polygon fill="none" stroke="#5F864C" stroke-miterlimit="10" points="53.634,52.33 50.153,68.095 64.632,84.225 75.998,84.225 
			70.497,52.33 		"/>
		<path fill="none" stroke="#5F864C" stroke-miterlimit="10" d="M39.703,87.136c0,1.226-0.996,2.222-2.222,2.222H24.694
			c-1.226,0-2.222-0.996-2.222-2.222v-0.692c0-0.59,0.233-1.153,0.651-1.571c0.417-0.417,0.982-0.651,1.572-0.651l12.786,0.003
			c1.228,0,2.222,0.996,2.222,2.222V87.136z"/>
		<path fill="#5F864C" d="M33.334,113.122c0,1.857-1.509,3.366-3.371,3.366c-1.859,0-3.364-1.509-3.364-3.366
			c0-1.862,1.505-3.369,3.364-3.369C31.825,109.753,33.334,111.259,33.334,113.122z"/>
		<path fill="#5F864C" d="M46.531,113.122c0,1.857-1.509,3.366-3.369,3.366c-1.86,0-3.368-1.509-3.368-3.366
			c0-1.862,1.508-3.369,3.368-3.369C45.022,109.753,46.531,111.259,46.531,113.122z"/>
		<path fill="#5F864C" d="M59.729,113.122c0,1.857-1.508,3.366-3.368,3.366c-1.861,0-3.367-1.509-3.367-3.366
			c0-1.862,1.506-3.369,3.367-3.369C58.221,109.753,59.729,111.259,59.729,113.122z"/>
		<path fill="#5F864C" d="M72.926,113.122c0,1.857-1.509,3.366-3.369,3.366s-3.368-1.509-3.368-3.366
			c0-1.862,1.508-3.369,3.368-3.369S72.926,111.259,72.926,113.122z"/>
		<path fill="none" stroke="#5F864C" stroke-miterlimit="10" d="M55.402,45.738L83.647,14.61c2.471-2.721,6.636-3.045,9.497-0.736
			l1.264,1.019c2.806,2.265,3.276,6.361,1.055,9.199L75.408,49.752"/>
		<path fill="none" stroke="#5F864C" stroke-miterlimit="10" d="M113.069,57.739l-13.57,14.892
			c-1.251,1.372-3.022,2.155-4.878,2.155h-5.473l5.529,5.267c5.128,4.884,13.129,5.068,18.474,0.417
			c3.833-3.334,5.191-8.697,3.404-13.453L113.069,57.739z"/>
		<path fill="none" stroke="#5F864C" stroke-width="2" stroke-miterlimit="10" d="M80.367,114.748c0,3.643-2.955,6.598-6.598,6.598
			H23.558c-3.644,0-6.598-2.955-6.598-6.598v-2.931c0-3.643,2.955-6.598,6.598-6.598h50.211c3.643,0,6.598,2.955,6.598,6.598
			V114.748z"/>
		<line fill="none" stroke="#5F864C" stroke-miterlimit="10" x1="86.696" y1="35.298" x2="107.065" y2="64.332"/>
		<line fill="none" stroke="#5F864C" stroke-miterlimit="10" x1="114.05" y1="60.353" x2="96.466" y2="22.268"/>
	</g>
	<g>
		<polyline fill="none" stroke="#5F864C" stroke-miterlimit="10" points="210.071,85.863 215.465,79.801 209.07,79.842 
			218.099,73.636 211.878,72.143 222.13,68.28 216.447,65.343 227.327,64.045 222.512,59.835 233.385,61.176 229.717,55.936 
			239.953,59.841 237.646,53.875 246.65,60.118 245.839,53.773 253.088,61.987 253.818,55.636 258.89,65.346 261.12,59.351 
			263.72,69.993 267.32,64.705 267.299,75.662 272.058,71.389 269.415,82.021 275.058,79.012 271.445,85.863 		"/>
		<polyline fill="none" stroke="#5F864C" stroke-miterlimit="10" points="270.801,103.596 262.203,106.837 267.886,109.774 
			257.007,111.073 261.821,115.284 250.95,113.942 254.616,119.183 244.38,115.276 246.686,121.241 237.682,115.001 
			238.493,121.346 231.246,113.131 230.515,119.484 225.442,109.774 223.214,115.769 220.613,105.127 217.013,110.413 
			217.027,103.596 		"/>
		<polygon fill="none" stroke="#272425" stroke-miterlimit="10" points="212.423,103.596 212.277,103.728 212.309,103.596 		"/>
		
			<rect x="179.669" y="85.863" fill="none" stroke="#5F864C" stroke-width="2" stroke-miterlimit="10" width="101.513" height="17.734"/>
		<path fill="none" stroke="#5F864C" stroke-miterlimit="10" d="M199.981,73.989c-0.473-1.921-15.161-25.703-15.161-25.703
			l-8.393,6.297L199.981,73.989z"/>
		<polygon fill="none" stroke="#5F864C" stroke-miterlimit="10" points="196.712,76.689 180.624,66.102 177.826,71.394 		"/>
		<path fill="#5F864C" d="M232.249,85.863c-0.001-0.051-0.001-0.103-0.001-0.154c0-4.982,4.039-9.02,9.019-9.02
			c4.982,0,9.02,4.039,9.02,9.02c0,0.051,0,0.102-0.001,0.154"/>
	</g>
	<g>
		<path fill="none" stroke="#5F864C" stroke-miterlimit="10" d="M361.14,105.359L361.14,105.359c0.372,0.22,0.827,0.377,1.358,0.449
			h-0.003C361.964,105.735,361.511,105.579,361.14,105.359z"/>
		<path fill="none" stroke="#5F864C" stroke-miterlimit="10" d="M362.495,105.808c-0.449-0.073-0.914-0.231-1.355-0.449
			C361.511,105.579,361.964,105.735,362.495,105.808z"/>
		<path fill="none" stroke="#5F864C" stroke-miterlimit="10" d="M362.497,105.808c0.09,0.017,0.181,0.028,0.27,0.036l-0.002-0.006
			C362.674,105.831,362.584,105.822,362.497,105.808z"/>
		<path fill="none" stroke="#5F864C" stroke-miterlimit="10" d="M359.983,103.265c-0.017,0.9,0.393,1.637,1.157,2.094l0,0
			C360.375,104.902,359.965,104.165,359.983,103.265z"/>
		<path fill="none" stroke="#5F864C" stroke-miterlimit="10" d="M362.766,105.838c-0.094-0.007-0.182-0.015-0.271-0.03h0.003
			C362.584,105.822,362.674,105.831,362.766,105.838L362.766,105.838z"/>
		<path fill="none" stroke="#5F864C" stroke-width="2" stroke-miterlimit="10" d="M427.996,80.788
			c0,23.152-18.765,41.921-41.921,41.921c-23.152,0-41.919-18.768-41.919-41.921c0-23.152,18.767-41.917,41.919-41.917
			C409.231,38.871,427.996,57.636,427.996,80.788z"/>
		<path fill="none" stroke="#5F864C" stroke-miterlimit="10" d="M365.623,92.654l4.652-8.061l5.718,3.302l-4.833-18.043
			l-18.045,4.834l5.725,3.331l-5.922,10.254c-0.725,1.261-0.725,3.317,0,4.576l6.193,10.726c0.414,0.719,1.178,1.365,2.029,1.784
			c-0.764-0.457-1.174-1.194-1.157-2.094c0.011-0.601,0.211-1.272,0.62-1.98L365.623,92.654z"/>
		<path fill="none" stroke="#5F864C" stroke-miterlimit="10" d="M360.603,101.284c-0.409,0.709-0.609,1.379-0.62,1.98
			c-0.017,0.9,0.393,1.637,1.157,2.094c0.441,0.218,0.906,0.377,1.355,0.449c0.089,0.014,0.177,0.023,0.271,0.03l0.941,0.022h17.168
			v-4.809v-8.396h-15.251L360.603,101.284z"/>
		<g>
			<path fill="none" stroke="#5F864C" stroke-miterlimit="10" d="M377.504,46.847L377.504,46.847
				c-0.377,0.209-0.739,0.524-1.072,0.948c0.002,0,0.002,0,0.002-0.003C376.765,47.371,377.127,47.058,377.504,46.847z"/>
			<path fill="none" stroke="#5F864C" stroke-miterlimit="10" d="M376.434,47.791c0.291-0.351,0.661-0.674,1.07-0.944
				C377.127,47.058,376.765,47.371,376.434,47.791z"/>
			<path fill="none" stroke="#5F864C" stroke-miterlimit="10" d="M386.235,57.111l4.626,8.072l-5.728,3.282l18.028,4.891
				l4.891-18.026l-5.755,3.272l-5.889-10.272c-0.724-1.262-2.503-2.297-3.958-2.302l-12.38-0.036
				c-0.836-0.002-1.774,0.332-2.566,0.856c0.779-0.432,1.622-0.416,2.392,0.053c0.514,0.314,0.995,0.821,1.4,1.53L386.235,57.111z"
				/>
			<path fill="none" stroke="#5F864C" stroke-miterlimit="10" d="M376.432,47.795c-0.059,0.07-0.113,0.143-0.165,0.213l0.007,0.004
				C376.324,47.937,376.377,47.863,376.432,47.795z"/>
			<path fill="none" stroke="#5F864C" stroke-miterlimit="10" d="M379.896,46.9c-0.77-0.469-1.613-0.485-2.392-0.053l0,0
				C378.283,46.414,379.126,46.431,379.896,46.9z"/>
			<path fill="none" stroke="#5F864C" stroke-miterlimit="10" d="M376.274,48.012c0.05-0.077,0.104-0.149,0.16-0.22
				c0,0.003,0,0.003-0.002,0.003C376.377,47.863,376.324,47.937,376.274,48.012L376.274,48.012z"/>
			<path fill="none" stroke="#5F864C" stroke-miterlimit="10" d="M381.296,48.43c-0.405-0.709-0.886-1.216-1.4-1.53
				c-0.77-0.469-1.613-0.487-2.392-0.053c-0.41,0.271-0.779,0.593-1.07,0.944c-0.055,0.071-0.11,0.143-0.16,0.22l-0.494,0.803
				l-8.63,14.843l4.155,2.416l7.262,4.221l7.667-13.184L381.296,48.43z"/>
		</g>
		<path fill="none" stroke="#5F864C" stroke-miterlimit="10" d="M406.764,92.417l-9.301,0.072l-0.054-6.603l-13.106,13.31
			l13.313,13.107l-0.03-6.622l11.842-0.091c1.453-0.012,3.227-1.053,3.944-2.323l6.107-10.771c0.414-0.723,0.581-1.709,0.512-2.653
			c-0.007,0.891-0.435,1.616-1.222,2.058c-0.522,0.295-1.201,0.465-2.017,0.471L406.764,92.417z"/>
		<path fill="none" stroke="#5F864C" stroke-miterlimit="10" d="M416.752,92.371c0.816-0.006,1.495-0.176,2.017-0.471
			c0.788-0.441,1.217-1.166,1.222-2.058c-0.036-0.491-0.135-0.97-0.296-1.395c-0.038-0.083-0.074-0.167-0.114-0.251l-0.459-0.822
			l-8.698-14.802l-4.147,2.439l-7.242,4.259l7.729,13.147L416.752,92.371z"/>
	</g>
	<g>
		<path fill="#E69423" d="M141.13,88.213h-5.953v-4.852h5.953v-8.742h4.617v8.742h5.953v4.852h-5.953v8.625h-4.617V88.213z"/>
	</g>
	<g>
		<path fill="#E69423" d="M307.188,81.638v-4.805h16.523v4.805H307.188z M307.188,90.849v-4.852h16.523v4.852H307.188z"/>
	</g>
</g>
</svg>
